# xmcd
#
# Track frame offsets:
#	151
#	23068
#	50123
#	66130
#	86797
#	106406
#	118365
#	134220
#	156831
#	172472
#	188869
#	200020
#	217693
#	233744
#	283151
#
# Disc length: 4213 seconds
#
# Revision: 0
# Processed by: cddbd v1.4PL0 Copyright (c) Steve Scherf et al.
# Submitted via: dBpowerAMP V4.0
#
DISCID=ef10730f
DTITLE=BB King - Classics
DYEAR=1900
DGENRE=Blues
TTITLE0=Everyday I Have The Blues
TTITLE1=Sweet Little Angel
TTITLE2=Caldonia
TTITLE3=Why I Sing The Blues
TTITLE4=Sweet Sixteen
TTITLE5=Payin' The Cost To Be The Boss
TTITLE6=The Letter
TTITLE7=The Thrill Is Gone
TTITLE8=Walkin' And Cryin'
TTITLE9=The Other Night Blues
TTITLE10=Catfish Blues
TTITLE11=That Evil Child
TTITLE12=Long Nights
TTITLE13=Jam
TTITLE14=BB's Theme
EXTD=
EXTT0=
EXTT1=
EXTT2=
EXTT3=
EXTT4=
EXTT5=
EXTT6=
EXTT7=
EXTT8=
EXTT9=
EXTT10=
EXTT11=
EXTT12=
EXTT13=
EXTT14=
PLAYORDER=
